<svg xmlns="http://www.w3.org/2000/svg" width="66" height="66" viewBox="0 0 66 66">
  <g id="Gruppe_6" data-name="Gruppe 6" transform="translate(-4427 -2194)">
    <circle id="Ellipse_5" data-name="Ellipse 5" cx="33" cy="33" r="33" transform="translate(4427 2194)" fill="#d6d6d6"/>
    <g id="Gruppe_4" data-name="Gruppe 4" transform="translate(4441 2209.978)">
      <path id="Pfad_2" data-name="Pfad 2" d="M3914.765,2192.392v-10.925c0-2.791,2.221-6.851,8.054-6.851s7.87,3.682,7.87,6.851v10.925" transform="translate(-3903.764 -2174.617)" fill="none" stroke="#a1a1a1" stroke-linejoin="bevel" stroke-width="10"/>
      <path id="Differenzmenge_1" data-name="Differenzmenge 1" d="M19,29A19,19,0,0,1,0,10V4.75A4.756,4.756,0,0,1,4.75,0h28.5A4.756,4.756,0,0,1,38,4.75V10A19,19,0,0,1,19,29ZM18.862,7.493a3.853,3.853,0,0,0-3.9,3.8,3.784,3.784,0,0,0,1.592,3.064l-1.6,7.117H22.8l-1.627-7.12a3.787,3.787,0,0,0,1.588-3.061A3.853,3.853,0,0,0,18.862,7.493Z" transform="translate(0 15.022)" fill="#a1a1a1"/>
    </g>
  </g>
</svg>
