<svg xmlns="http://www.w3.org/2000/svg" width="66" height="66" viewBox="0 0 66 66">
  <g id="Gruppe_5" data-name="Gruppe 5" transform="translate(-4543 -2202)">
    <circle id="Ellipse_4" data-name="Ellipse 4" cx="33" cy="33" r="33" transform="translate(4543 2202)" fill="#d6d6d6"/>
    <g id="Gruppe_3" data-name="Gruppe 3" transform="translate(4557.24 2210.354)">
      <path id="Pfad_3" data-name="Pfad 3" d="M0,17.775V6.851C0,4.06,2.221,0,8.055,0s7.869,3.682,7.869,6.851,0,10.924,0,10.924" transform="matrix(0.788, -0.616, 0.616, 0.788, 2.636, 9.804)" fill="none" stroke="#a1a1a1" stroke-linecap="round" stroke-linejoin="bevel" stroke-width="10"/>
      <path id="Differenzmenge_2" data-name="Differenzmenge 2" d="M19.183,29.065A19.183,19.183,0,0,1,0,9.882V4.8A4.8,4.8,0,0,1,4.8,0H33.57a4.8,4.8,0,0,1,4.8,4.8V9.882A19.182,19.182,0,0,1,19.183,29.065ZM19.024,7.51a3.876,3.876,0,0,0-3.934,3.807,3.785,3.785,0,0,0,1.607,3.07L15.083,21.52H23l-1.642-7.136a3.785,3.785,0,0,0,1.6-3.067A3.877,3.877,0,0,0,19.024,7.51Z" transform="translate(0 20.721)" fill="#a1a1a1"/>
    </g>
  </g>
</svg>
